# AST/ASF file generated using VICON BodyLanguage
# -----------------------------------------------
:version 1.10
:name VICON
:units
  mass 1.0
  length 0.45
  angle deg
:documentation
   .ast/.asf automatically generated from VICON data using
   VICON BodyBuilder and BodyLanguage model FoxedUp or BRILLIANT.MOD
:root
   order TX TY TZ RX RY RZ
   axis XYZ
   position 0 0 0  
   orientation 0 -0 0 
:bonedata
  begin
     id 1 
     name lhipjoint
     direction 0.500677 -0.737119 0.453848 
     length 2.34727 
     axis 0 -0 0  XYZ
  end
  begin
     id 2 
     name lfemur
     direction 0.34202 -0.939693 0  
     length 7.53653  
     axis 0 -0 20  XYZ
    dof rx ry rz
    limits (-160.0 20.0)
           (-70.0 70.0)
           (-60.0 70.0)
  end
  begin
     id 3 
     name ltibia
     direction 0.34202 -0.939693 0   
     length 6.85572   
     axis 0 -0 20   XYZ
    dof rx
    limits (-10.0 170.0)
  end
  begin
     id 4 
     name lfoot
     direction 0.155313 -0.426718 0.890949   
     length 2.18324   
     axis -90 -1.13533e-015 20   XYZ
    dof rx rz
    limits (-45.0 90.0)
           (-70.0 20.0)
  end
  begin
     id 5 
     name ltoes
     direction 1.53474e-011 -4.21647e-011 1   
     length 1.06748   
     axis -90 -1.13533e-015 20   XYZ
    dof rx
    limits (-90.0 20.0)
  end
  begin
     id 6 
     name rhipjoint
     direction -0.632471 -0.659587 0.406111   
     length 2.62319  
     axis 0 -0 0  XYZ 
  end
  begin
     id 7 
     name rfemur
     direction -0.34202 -0.939693 0   
     length 7.21735   
     axis 0 -0 -20   XYZ
    dof rx ry rz
    limits (-160.0 20.0)
           (-70.0 70.0)
           (-70.0 60.0)
  end
  begin
     id 8 
     name rtibia
     direction -0.34202 -0.939693 0   
     length 7.02558   
     axis 0 -0 -20   XYZ
    dof rx
    limits (-10.0 170.0)
 end
 begin
     id 9 
     name rfoot
     direction -0.16057 -0.441164 0.882945   
     length 2.10014  
     axis -90 1.13533e-015 -20   XYZ
    dof rx rz
    limits (-45.0 90.0)
           (-20.0 70.0)
  end
  begin
     id 10 
     name rtoes
     direction -1.53553e-011 -4.2192e-011 1   
     length 1.02554   
     axis -90 1.13533e-015 -20   XYZ
    dof rx
    limits (-90.0 20.0)
  end
  begin
     id 11 
     name lowerback
     direction 0.0401429 0.998861 -0.0258085   
     length 1.80848   
     axis 0 -0 0   XYZ
    dof rx ry rz
    limits (-20.0 45.0)
           (-30.0 30.0)
           (-30.0 30.0)
  end
  begin
     id 12 
     name upperback
     direction -0.0130978 0.999914 -0.000352645   
     length 1.8116   
     axis 0 -0 0   XYZ
    dof rx ry rz
    limits (-20.0 45.0)
           (-30.0 30.0)
           (-30.0 30.0)
  end
  begin
     id 13 
     name thorax
     direction -0.0300198 0.999453 0.0138573   
     length 1.81778   
     axis 0 -0 0   XYZ
    dof rx ry rz
    limits (-20.0 45.0)
           (-30.0 30.0)
           (-30.0 30.0)
  end
  begin
     id 14 
     name lowerneck
     direction -0.0401726 0.999191 -0.00173647   
     length 2.10594   
     axis 0 -0 0   XYZ
    dof rx ry rz
    limits (-20.0 45.0)
           (-30.0 30.0)
           (-30.0 30.0)
  end
  begin
     id 15 
     name upperneck
     direction 0.0119835 0.998501 0.0534085   
     length 2.07325   
     axis 0 -0 0   XYZ
    dof rx ry rz
    limits (-20.0 45.0)
           (-30.0 30.0)
           (-30.0 30.0)
  end
  begin
     id 16
     name head
     direction 0.00628309 0.999826 0.0175921  
     length 2.15096  
     axis 0 -0 0   XYZ
    dof rx ry rz
    limits (-20.0 45.0)
           (-30.0 30.0)
           (-30.0 30.0)
  end
  begin
     id 17 
     name lclavicle
     direction 0.895501 0.429681 -0.115981  
     length 4.18092  
     axis 0 -0 0   XYZ
    dof ry rz
    limits (-20.0 10.0)
           (0.0 20.0)
  end
  begin
     id 18 
     name lhumerus
     direction 1 -4.48961e-011 -3.38433e-028   
     length 5.77237   
     axis 180 -30 -90   XYZ
    dof rx ry rz
    limits (-60.0 90.0)
           (-90.0 90.0)
           (-90.0 90.0)
  end
  begin
     id 19
     name lradius
     direction 1 -4.4901e-011 1.11983e-026   
     length 2.91878   
     axis 180 -30 -90   XYZ
    dof rx
    limits (-10.0 170.0)
  end
  begin
     id 20
     name lwrist
     direction 1 -4.48934e-011 1.88176e-026   
     length 1.45939   
     axis -1.23311e-014 90 90   XYZ
    dof ry
    limits (-180.0 0.0)
 end
  begin
     id 21 
     name lhand
     direction 1 -4.4895e-011 3.76352e-026   
     length 1.06566   
     axis -2.40147e-014 90 90   XYZ
    dof rx rz
    limits (-90.0 90.0)
           (-45.0 45.0)
  end
  begin
     id 22 
     name lfingers
     direction 1 -4.49005e-011 7.52705e-026   
     length 0.859162   
     axis -4.80295e-014 90 90   XYZ
    dof rx
    limits (0.0 90.0)
  end
  begin
     id 23
     name lthumb
     direction 0.707107 -6.34885e-011 0.707107   
     length 1.23359   
     axis -90 45 -9.86935e-015   XYZ
    dof rx rz
    limits (-45.0 45.0)
           (-45.0 45.0)
  end
  begin
     id 24 
     name rclavicle
     direction -0.91006 0.40451 -0.0903492   
     length 4.23293  
     axis 0 -0 0   XYZ 
    dof ry rz
    limits (-10.0 20.0)
           (-20.0 0.0)
  end
  begin
     id 25 
     name rhumerus
     direction -1 -4.4897e-011 1.7415e-027  
     length 5.49854   
     axis 180 30 90   XYZ
    dof rx ry rz
    limits (-90.0 60.0)
           (-90.0 90.0)
           (-90.0 90.0)
  end
  begin
     id 26 
     name rradius
     direction -1 -4.48963e-011 1.21259e-026   
     length 3.1186   
     axis 180 30 90   XYZ
    dof rx
    limits (-10.0 170.0)
  end
  begin
     id 27 
     name rwrist
     direction -1 -4.48967e-011 1.88176e-026   
     length 1.5593   
     axis -1.23311e-014 -90 -90   XYZ
    dof ry
    limits (-180.0 0.0)
  end
  begin
     id 28
     name rhand
     direction -1 -4.4895e-011 3.76352e-026   
     length 0.71207   
     axis -2.40147e-014 -90 -90   XYZ
    dof rx rz
    limits (-90.0 90.0)
           (-45.0 45.0)
  end
  begin
     id 29
     name rfingers
     direction -1 -4.49005e-011 7.52705e-026   
     length 0.574089   
     axis -4.80295e-014 -90 -90   XYZ
    dof rx
    limits (0.0 90.0)
  end
  begin
     id 30
     name rthumb
     direction -0.707107 -6.34982e-011 0.707107   
     length 0.824281   
     axis -90 -45 9.86935e-015   XYZ
    dof rx rz
    limits (-45.0 45.0)
           (-45.0 45.0)
  end
:hierarchy
  begin
    root lhipjoint rhipjoint lowerback
    lhipjoint lfemur
    lfemur ltibia
    ltibia lfoot
    lfoot ltoes
    rhipjoint rfemur
    rfemur rtibia
    rtibia rfoot
    rfoot rtoes
    lowerback upperback
    upperback thorax
    thorax lowerneck lclavicle rclavicle
    lowerneck upperneck
    upperneck head
    lclavicle lhumerus
    lhumerus lradius
    lradius lwrist
    lwrist lhand lthumb
    lhand lfingers
    rclavicle rhumerus
    rhumerus rradius
    rradius rwrist
    rwrist rhand rthumb
    rhand rfingers
  end

#!OML:ASF C:\ViconDB\ViconDB\414\Spring2016\042216\male.ASF
:FULLY-SPECIFIED
:DEGREES
197
root -44.6914 17.0129 13.452 -168.048 85.0913 -169.349
lowerback -2.42297 -1.7423 4.57074
upperback -0.127085 -2.43712 -0.749648
thorax 1.00426 -1.19591 -3.40779
lowerneck -1.03107 6.87954 -1.5893
upperneck 1.231 9.2411 -1.9209
head 0.5612 4.60379 -0.25277
rclavicle 2.11649e-014 7.95139e-015
rhumerus -30.5498 -3.3563 -93.7225
rradius 26.999
rwrist 34.2602
rhand 15.369 -17.5794
rfingers 7.12502
rthumb 40.1989 -42.7452
lclavicle 2.11649e-014 7.95139e-015
lhumerus -35.9449 14.3031 87.1868
lradius 32.5165
lwrist -14.3933
lhand -3.35448 11.2625
lfingers 7.12502
lthumb 22.3737 39.9868
rfemur -11.1276 0.133157 19.9256
rtibia 27.8626
rfoot -20.5575 -0.485612
rtoes -7.82727
lfemur -10.3247 -3.60308 -19.2841
ltibia 28.7349
lfoot -29.2903 10.0903
ltoes -14.4484
198
root -44.6854 17.0133 13.4492 -168.285 85.1008 -169.624
lowerback -2.40054 -1.71827 4.48511
upperback -0.107703 -2.4024 -0.729038
thorax 1.01922 -1.17827 -3.33727
lowerneck -0.946014 6.90399 -1.5901
upperneck 1.03567 9.26823 -1.99389
head 0.491144 4.62006 -0.281822
rclavicle -1.93417e-015 -5.56597e-015
rhumerus -30.5386 -3.15612 -93.7315
rradius 26.9613
rwrist 33.9977
rhand 15.1656 -17.5148
rfingers 7.12502
rthumb 40.0075 -42.7386
lclavicle -1.93417e-015 -5.56597e-015
lhumerus -35.9306 14.2466 87.2749
lradius 32.5943
lwrist -14.28
lhand -3.43595 11.3526
lfingers 7.12502
lthumb 22.2955 40.0864
rfemur -11.1346 0.153392 19.8956
rtibia 27.8656
rfoot -20.6265 -0.532643
rtoes -7.9265
lfemur -10.3526 -3.4739 -19.3198
ltibia 28.7581
lfoot -29.453 9.98052
ltoes -14.3344
199
root -44.6782 17.0131 13.4439 -167.772 85.0818 -169.158
lowerback -2.37619 -1.70962 4.54941
upperback -0.0895841 -2.39194 -0.725096
thorax 1.02273 -1.17236 -3.36853
lowerneck -0.962418 6.925 -1.51119
upperneck 0.941028 9.29463 -2.08311
head 0.473173 4.63414 -0.321595
rclavicle -9.52788e-015 7.45443e-015
rhumerus -30.5022 -3.07425 -93.7422
rradius 26.9232
rwrist 33.5766
rhand 15.1231 -17.5172
rfingers 7.12502
rthumb 39.9675 -42.7531
lclavicle -9.52788e-015 7.45443e-015
lhumerus -35.8908 14.1755 87.3457
lradius 32.6462
lwrist -14.3807
lhand -3.17526 11.3296
lfingers 7.12502
lthumb 22.5458 40.0332
rfemur -11.1533 0.285102 19.9365
rtibia 27.8681
rfoot -20.7145 -0.70249
rtoes -8.12424
lfemur -10.3995 -3.44324 -19.2999
ltibia 28.7917
lfoot -29.5848 9.89981
ltoes -14.2244
200
root -44.67 17.0146 13.4392 -168.407 85.0882 -169.831
lowerback -2.31868 -1.69662 4.52849
upperback -0.103744 -2.37068 -0.758235
thorax 0.977296 -1.16323 -3.38807
lowerneck -0.874023 6.97169 -1.54922
upperneck 0.808129 9.35064 -2.02376
head 0.413565 4.66451 -0.304442
rclavicle 1.62871e-014 -5.36719e-015
rhumerus -30.5029 -3.20931 -93.7423
rradius 26.8665
rwrist 33.5415
rhand 15.0209 -17.5114
rfingers 7.12502
rthumb 39.8713 -42.7762
lclavicle 1.62871e-014 -5.36719e-015
lhumerus -35.9393 14.2186 87.293
lradius 32.7314
lwrist -14.1777
lhand -3.46372 11.4091
lfingers 7.12502
lthumb 22.2689 40.146
rfemur -11.1521 0.442458 19.8669
rtibia 27.8824
rfoot -20.7459 -0.852725
rtoes -7.97466
lfemur -10.4192 -3.39066 -19.3835
ltibia 28.8128
lfoot -29.8207 10
ltoes -14.7587
201
root -44.6612 17.0139 13.4366 -168.582 85.0581 -170.003
lowerback -2.28389 -1.69449 4.50254
upperback -0.0622657 -2.36637 -0.776986
thorax 1.00113 -1.15993 -3.39241
lowerneck -0.864224 6.97572 -1.41273
upperneck 0.719203 9.35364 -2.14374
head 0.397426 4.66699 -0.363081
rclavicle -1.07542e-014 -7.7526e-015
rhumerus -30.4702 -3.15146 -93.8077
rradius 26.7823
rwrist 33.6785
rhand 14.764 -17.5095
rfingers 7.12502
rthumb 39.6294 -42.8462
lclavicle -1.07542e-014 -7.7526e-015
lhumerus -35.9144 14.2422 87.253
lradius 32.805
lwrist -14.0089
lhand -3.85632 11.6072
lfingers 7.12502
lthumb 21.8919 40.3887
rfemur -11.1008 0.465689 19.8597
rtibia 27.8858
rfoot -20.9314 -1.02442
rtoes -8.46288
lfemur -10.379 -3.68302 -19.4289
ltibia 28.8445
lfoot -29.8966 10.2128
ltoes -14.0846
202
root -44.6493 17.011 13.4337 -168.716 84.9988 -170.139
lowerback -2.287 -1.70294 4.43435
upperback -0.0129825 -2.37755 -0.739973
thorax 1.0569 -1.16366 -3.31745
lowerneck -0.902395 7.02069 -1.51098
upperneck 0.679697 9.4139 -2.09119
head 0.384461 4.6974 -0.331675
rclavicle -2.27748e-014 -3.77691e-015
rhumerus -30.4388 -3.0666 -93.7778
rradius 26.7745
rwrist 33.4742
rhand 14.662 -17.5958
rfingers 7.12502
rthumb 39.5334 -42.9609
lclavicle -2.27748e-014 -3.77691e-015
lhumerus -35.9055 14.3413 87.2842
lradius 32.8616
lwrist -14.041
lhand -4.01755 11.5429
lfingers 7.12502
lthumb 21.7371 40.3424
rfemur -11.0199 0.504943 19.8562
rtibia 27.8798
rfoot -21.1525 -1.23024
rtoes -8.86586
lfemur -10.3388 -3.88401 -19.4734
ltibia 28.8829
lfoot -29.9843 10.4851
ltoes -14.237
203
root -44.6373 17.0097 13.4281 -168.204 84.9189 -169.634
lowerback -2.27578 -1.70451 4.48298
upperback 0.0115074 -2.38126 -0.710303
thorax 1.07479 -1.16443 -3.31436
lowerneck -0.939704 7.05927 -1.53791
upperneck 0.706851 9.46758 -2.10149
head 0.398228 4.72361 -0.328193
rclavicle -1.81018e-014 7.95139e-015
rhumerus -30.4111 -3.13793 -93.7269
rradius 26.7428
rwrist 32.7979
rhand 14.6684 -17.8622
rfingers 7.12502
rthumb 39.5394 -43.2256
lclavicle -1.81018e-014 7.95139e-015
lhumerus -35.8979 14.4358 87.2905
lradius 32.8848
lwrist -13.9353
lhand -4.14619 11.3869
lfingers 7.12502
lthumb 21.6136 40.2007
rfemur -10.9491 0.537515 19.906
rtibia 27.8731
rfoot -21.3461 -1.39985
rtoes -9.11024
lfemur -10.3112 -4.08722 -19.4459
ltibia 28.9309
lfoot -30.2085 10.6225
ltoes -14.2515
204
root -44.6265 17.0103 13.4214 -167.842 84.8064 -169.308
lowerback -2.25699 -1.72152 4.56566
upperback 0.0282515 -2.40564 -0.704953
thorax 1.07617 -1.17585 -3.35549
lowerneck -1.03401 7.07999 -1.48323
upperneck 0.776077 9.49968 -2.16982
head 0.440959 4.73796 -0.351127
rclavicle -1.0913e-014 -4.96962e-016
rhumerus -30.3637 -3.12873 -93.7284
rradius 26.7297
rwrist 32.4474
rhand 14.375 -18.0034
rfingers 7.12502
rthumb 39.263 -43.4476
lclavicle -1.0913e-014 -4.96962e-016
lhumerus -35.9141 14.5162 87.259
lradius 32.9438
lwrist -13.9612
lhand -4.6178 11.4826
lfingers 7.12502
lthumb 21.1606 40.3478
rfemur -10.8906 0.651323 19.9445
rtibia 27.8625
rfoot -21.6338 -1.68057
rtoes -9.48873
lfemur -10.3256 -4.22247 -19.4293
ltibia 28.9781
lfoot -30.4452 10.7206
ltoes -14.187
205
root -44.6121 17.0083 13.417 -168.794 84.7408 -170.243
lowerback -2.23358 -1.74441 4.50729
upperback 0.0755624 -2.43435 -0.737383
thorax 1.11011 -1.18887 -3.35706
lowerneck -1.09238 7.13652 -1.53213
upperneck 0.808396 9.57655 -2.09931
head 0.454579 4.77568 -0.319292
rclavicle 4.58237e-014 -9.44227e-015
rhumerus -30.3111 -3.38634 -93.691
rradius 26.6402
rwrist 32.5953
rhand 13.8261 -18.1256
rfingers 7.12502
rthumb 38.7455 -43.718
lclavicle 4.58237e-014 -9.44227e-015
lhumerus -35.9119 14.7037 87.147
lradius 32.9743
lwrist -13.7749
lhand -5.38345 11.6469
lfingers 7.12502
lthumb 20.425 40.5926
rfemur -10.7677 0.637432 19.8609
rtibia 27.8429
rfoot -21.9032 -1.91089
rtoes -9.91915
lfemur -10.2669 -4.23775 -19.5427
ltibia 29.0426
lfoot -30.7411 10.7342
ltoes -14.6286
